<?xml version="1.0" encoding="UTF-8"?>
<svg viewBox="0 0 744.09448819 1052.3622047" xmlns="http://www.w3.org/2000/svg">
 <path d="m469.01 811.51c-20.51-16.224-45.337-30.897-62.368-53.037-21.729-16.73 7.7833-60.618-6.7775-68.478-14.079 24.022-14.401 52.905-19.056 79.757 4.2042 13.927-11.234 41.04-9.8655 12.388-1.6785-30.762 9.5057-59.824 1.4757-90.087-5.0248-28.833-8.6202-59.636-7.3219-88.791 3.0941-17.232 5.2528-35.73-18.761-32.044-15.213 11.604-11.983 49.261-25.405 68.658-28.858 17.439-22.938 58.242 6.9199 71.018 19.804 16.41 23.011 31.356-5.2742 25.822-24.059 1.7308-35.419-31.275-43.872-50.295-10.24-25.092-0.62698-52.82-17.585-76.188-2.2674-12.61 17.078-45.902-9.5667-27.608-20.08 21.907-50.017 14.572-76.399 14.321-27.594-5.9812-57.236-5.6304-82.292-20.847-19.21-15.839-57.407-32.275-55.365-58.269 13.284-23.721 38.603-38.348 55.102-59.054 14.866-12.379 28.973-27.088 48.757-34.772 24.872-0.43367 29.534-29.573 43.824-45.43 15.791-26.333 32.045-53.967 57.692-72.357 16.3-10.707 48.427-3.7296 53.148-33.561 12.184-23.893 40.102-26.498 64.249-25.04 25.761-7.0908 49.181-24.044 76.84-24.612 23.406-2.0322 27.373 14.928 14.278 28.967 4.4077 20.584-45.168 9.1681-17.778 28.367 17.554 10.15 29.528 27.128 6.6402 38.669 12.07 9.5412-4.4187 28.459-0.94372 39.828-24.545-3.0874-54.296-5.0792-77.413 3.0659-19.434 14.301-56.45 0.36153-69.196 30.98-16.262 15.878-20.061 35.595 7.9032 29.102 26.363 7.6856 66.532 4.9117 80.718 30.716 6.2436 13.714 29.61-20.754 28.757-33.514 14.791-25.184 46.765-28.727 71.762-29.656 36.447 9.9326 69.148 30.166 104.15 44.125 27.785 6.4282 49.816 20.655 55.651 50.296 7.9455 6.839 36.197 11.849 8.9364 12.411-28.974-3.0909-26.679-44.084-58.515-49.161-25.246-15.395-56.083-19.347-80.969-35.931-25.73-10.484-60.038-15.16-82.896 3.6082-22.345 16.052-15.255 54.43-48.448 59.37-18.17 6.3726-29.536-40.4-56.173-38.512-48.659-13.108-100.46-14.478-150.29-7.5982-26.06 9.64-56.787 18.249-70.692 45.804-10.805 19.734-61.086 41.731-34.522 64.013 17.511 8.7957 38.5 49.885 48.877 18.272 7.992-13.949 1.3602 16.114 1.3602 16.114s49.255 11.401 65.63 6.4468c30.238 4.4961 62.746-1.4564 89.896-15.024 9.0206-14.776-22.712-41.507 4.8974-23.254 18.809 22.7-10.75 47.918-8.5742 72.068 20.516 18.368 9.7985 46.834 17.584 65.323 5.4866-31.3 36.587-51.748 36.947-84.451 2.9982-21.596 16.713-41.238 11.633-59.696 11.778 8.3824 12.926 13.366 10.649 21.764 8.0251 18.948 39.005-33.31 38.601-7.2082-13.083 23.709-5.0751 53.581-9.695 78.597 1.0298 22.633-3.223 46.239 3.3967 69.326 8.4967 27.115 18.127-30.401 28.989-38.393 17.764-10.109 18.446 32.695 7.3333 40.597-3.2502 24.723-12.423 55.346 17.402 69.899 9.7887-3.6948-8.9377-32.984 10.568-40.905 11.365-24.8 12.926-49.034 10.977-76.71-13.255-26.539 23.252-40.755 29.501-59.559 6.4158-26.276-35.34-35.932-30.936-53.962 20.578-8.0966 48.263 23.762 64.744 22.991 25.253-25.57-5.6532-36.265-28.872-44.812-11.234-4.602-38.833-33.844-10.811-23.862 30.021 1.2398 52.593 35.367 78.12 33.879 11.203-6.8189 43.883-20.683 14.874-28.681-9.5647-17.559-54.382-10.853-51.457-24.05 26.046-12.695 60.72 5.7121 83.173 22.048 15.132 11.862 40.327-0.4591 59.02 5.7997-13.406 11.283-49.608 13.741-71.294 22.043-26.804 3.4416-47.059 21.363-62.922 41.89-2.1292 13.533-9.7409 24.606-15.858 6.3962-12.355-10.423-40.603-18.726-20.444 4.9086 4.9366 15.446 17.085 41.811-9.8644 34.993-30.93 18.924-10.651 58.026-17.699 85.505 9.1684 29.516-30.807 46.088-10.555 72.691 2.9013 16.564 22.903 35.738 22.232 46.572l-3.0471-0.58954-3.4406-3.4105zm-136.93-83.459c-5.8715-10.787-44.704-43.132-25.577-11.574 3.7699 7.863 17.434 17.467 25.577 11.574zm264-226.51c-7.7731-13.115-23.452-10.116-4.2576 0.42623l3.0499 0.8043 1.2078-1.2305zm-225-52.242c-16.485-19.733-11.342 2.5092 0 0zm-105.1-33.144c3.7322-24.074 30.868-37.565 37.246-57.631 28.291-1.7134 54.661-16.658 83.809-15.765 18.347 0.65672 58.383-8.7444 25.592-25.109-22.256-0.83999-51.73 10.859-69.162 8.7537 20.141-13.462 45.035-14.378 68.041-15.809 16.572 7.8417 34.633-11.262 11.527-17.633-18.821-25.337-54.857 6.2162-76.693 14.859-17.13 12.546-34.549 29.823-51.043 39.141 8.8422-18.096 26.043-37.139 45.372-40.396 21.816-14.502 49.943-24.578 69.735-38.829 5.4868-18.1 37.424-13.073 32.871-34.829-31.102-5.3102-40.937 30.657-72.226 28.408-25.937-2.8006-62.442-6.3923-69.94 26.631-9.838 33.112-51.945 26.496-73.788 45.718-16.604 22.024-29.588 47.323-39.315 73.135-28.338 11.627 18.285 12.575 24.971-1.1492 19.637-24.437 35.714-51.948 57.252-75.287 15.84-21.737 45.522-28.59 60.279-47.212 36.509-9.3577-13.063 14.479-17.995 26.812-23.881 12.194-44.676 30.295-59.06 53.208-12.721 15.012-45.803 60.53-4.1373 53.621 4.8117 1.9124 13.578 6.2477 16.665-0.63613zm-65.151 151.23c0.16913-22.487 34.082-43.131 22.356-72.158 0.47417-14.207-41.484-37.357-7.1389-24.564 32.888 13.636 20.365 53.424 11.696 78.184-14.005-0.74061-13.881 26.549-26.912 18.537zm-66.75-35.851c-18.502-9.4267-39.736-28.19-21.927-48.697 14.206-24.186 55.643-16.703 67.537 7.3724 10.888 25.863-22.032 49.461-45.61 41.325zm10-12.325c-20.792-8.8536-1.8329-42.171 14.647-19.913 9.1899 6.0696 9.3515 8.3389 9.2347-14.204-13.658 2.9696-16.829-20.363-37.565-5.0679-31.886 9.0477-14.403 45.068 13.683 39.185z"/>
</svg>
